<svg t="1683298089826" class="icon" viewBox="0 0 1024 1024" version="1.1" xmlns="http://www.w3.org/2000/svg" p-id="3438"
  width="80" height="80">
  <path
    d="M828.1 320.8l-58.5-112.5c-13.9-26.7-48.3-47.6-78.4-47.6H331.9c-30 0-64.5 20.8-78.6 47.3l-58.4 110.2c-12.3 23.4-22.1 62.5-22.1 88.9v370.1c0 33.4 27.2 60.6 60.7 60.6h555.7c33.4 0 60.7-27.2 60.7-60.6V409.8c0-26.5-9.6-65.5-21.8-89z m-610.3 36.6c3.1-10 5.9-17.2 8.8-22.5L285 224.8c8-15 29.9-28.3 46.9-28.3h359.4c17 0 38.7 13.2 46.6 28.3l58.5 112.4c2.6 5 5.2 11.8 8 20.1l1.4 4.6H216.3l1.5-4.5zM814 777.2c0 13.7-11.2 24.8-24.9 24.8H233.5c-13.7 0-24.9-11.1-24.9-24.8V407.1c0-1.2 0.1-2.6 0.3-3.9l0.4-5.4h603.8l0.5 5.2c0.3 2.4 0.5 4.8 0.5 6.8v367.4z"
    p-id="3439" fill="#27BA9B"></path>
  <path
    d="M447.6 553.7H319.3c-9.9 0-17.9 8-17.9 17.9s8 17.9 17.9 17.9h128.3c9.9 0 17.9-8 17.9-17.9s-8-17.9-17.9-17.9zM382.7 644.9h-64.1c-9.9 0-17.9 8-17.9 17.9s8 17.9 17.9 17.9h64.1c9.9 0 17.9-8 17.9-17.9s-8-17.9-17.9-17.9zM693.6 521.3L583.4 639l-2.5-2.6-43.4-43.4c-3.5-3.5-8.1-5.2-12.7-5.2s-9.2 1.7-12.7 5.2c-3.4 3.4-5.2 7.9-5.2 12.7 0 4.8 1.8 9.2 5.2 12.6l58.6 58.5c5 5 12.2 7 19.9 3.6 3.2-1.1 5.5-2.6 7.4-4.5l121.7-130.1c3.3-3.5 5-8 4.8-12.7-0.1-4.8-2.2-9.3-5.7-12.5-7.1-6.7-18.3-6.4-25.2 0.7z"
    p-id="3440" fill="#27BA9B"></path>
</svg>