<svg t="1683298139989" class="icon" viewBox="0 0 1024 1024" version="1.1" xmlns="http://www.w3.org/2000/svg" p-id="3877"
  width="80" height="80">
  <path
    d="M863.232 129.024h-160.768v-25.6c0-15.872-12.8-28.672-28.672-28.672H351.744c-15.872 0-28.672 12.8-28.672 28.672v25.6H162.304c-15.872 0-28.672 12.8-28.672 28.672v700.928c0 15.872 12.8 28.672 28.672 28.672h700.416c16.384 0 28.672-12.8 29.184-28.672v-701.44c0-15.36-12.8-28.16-28.672-28.16z m-482.816 2.56H645.12v48.128H380.416v-48.128zM829.44 824.32H196.096V190.976h126.976v17.408c0 15.872 12.8 28.672 28.672 28.672h322.048c15.872 0 28.672-12.288 28.672-28.672v-17.408H829.44V824.32z"
    fill="#27BA9B" p-id="3878"></path>
  <path
    d="M731.136 411.648c0 8.704-3.072 16.384-9.216 23.04l-243.2 242.688c-12.8 12.8-32.768 12.8-45.568 0l-130.048-130.048c-12.8-12.8-12.8-32.768 0-45.568s32.768-12.8 45.568 0L455.68 608.256l219.648-219.648c12.8-12.8 32.768-12.8 45.568 0 6.656 6.656 9.728 14.336 10.24 23.04z"
    fill="#27BA9B" p-id="3879"></path>
</svg>