<svg t="1683297973170" class="icon" viewBox="0 0 1024 1024" version="1.1" xmlns="http://www.w3.org/2000/svg" p-id="2414"
  width="80" height="80">
  <path
    d="M763.246882 693.470786c-47.547529 0-86.080383 39.030547-86.080383 87.193293 0 48.161725 38.531832 87.192271 86.080383 87.192271 47.546507 0 86.079361-39.030547 86.079361-87.192271C849.325222 732.500311 810.793389 693.469764 763.246882 693.470786zM763.246882 825.360351c-24.369565 0-44.1158-20.001725-44.1158-44.69525 0-24.694547 19.747257-44.696271 44.116822-44.696271 24.367521 0 44.113756 20.000703 44.114778 44.697293C807.362683 805.357605 787.615425 825.360351 763.246882 825.360351z"
    fill="#27BA9B" p-id="2415"></path>
  <path
    d="M958.635689 539.918818c-2.003034-13.987513-6.859369-28.288766-13.667641-42.599218-4.94218-10.387162-9.891513-18.788663-13.561357-24.267369l-72.831745-135.047409-2.088878-3.162954c-1.174228-1.473661-5.110802-6.463872-5.578858-7.054563-2.27283-2.865565-4.035705-5.037222-5.796535-7.117924-15.81988-18.686467-31.206451-27.869764-54.116663-27.869764l-93.960687 0 0-81.245509c0-30.43794-23.994507-55.411481-53.741605-55.411481L118.124838 156.142627C88.377741 156.142627 64.383234 181.11719 64.383234 211.55513l0 512.466012c0 30.438962 23.993485 55.414547 53.741605 55.414547l58.479393 0 18.214323 0 2.505836-18.324695c6.605924-48.30582 50.707417-86.101844 101.326946-86.101844 50.619529 0 94.721022 37.796024 101.326946 86.100822l2.505836 18.328782 18.217389-0.003066 215.426299-0.034747 18.20206-0.003066 2.51299-18.311409c6.632495-48.31604 50.709461-86.084471 101.325924-86.077317 50.627705 0.007154 94.723066 37.797046 101.32899 86.101844l2.505836 18.324695 18.214323 0 39.602842 0c16.903154 0 29.721549-8.487345 35.61517-23.321038 3.482826-8.765317 4.178778-16.725333 4.178778-32.091465L959.614723 553.20016C959.616766 548.850715 959.279521 544.422579 958.635689 539.918818zM758.174914 632.511106c-64.832894-0.009198-122.008271 44.004407-138.955369 104.394858l-181.611816 0.028615c-16.928703-60.388407-74.125541-104.423473-138.956391-104.423473-64.832894 0-122.028711 44.036088-138.957413 104.426539l-41.569086 0c-6.408687 0-11.902723-5.718866-11.902723-12.916503L106.222116 211.55513c0-7.195593 5.494036-12.914459 11.902723-12.914459l525.16586 0c6.408687 0 11.902723 5.718866 11.902723 12.914459l0 102.49402 0 21.248511 20.919441 0L790.994012 335.297661c8.891018 0 13.799473 2.929948 22.394124 13.081038 1.417453 1.673964 2.921772 3.527792 4.938092 6.069397 0.313741 0.395497 2.770523 3.509397 4.447553 5.627912l72.447489 134.336128 1.183425 1.939673c0.545725 0.796104 1.68214 2.556934 3.209964 5.111824 2.616208 4.374994 5.242635 9.220088 7.683066 14.348263 5.100583 10.720319 8.630419 21.114635 9.934435 30.222307 0.363816 2.541605 0.545725 4.93707 0.545725 7.165956l0 170.820982c0 6.569134-0.185996 10.807186-0.532439 13.436679-3.584-0.204391-12.113246-0.332136-20.085525-0.409804C880.271074 676.604423 823.051752 632.520303 758.174914 632.511106z"
    p-id="2416" fill="#27BA9B"></path>
  <path
    d="M300.02689 693.470786c-46.358994 0-83.928144 38.046403-83.928144 84.995066 0.001022 46.947641 37.570172 84.994044 83.928144 84.994044 46.357972 0 83.928144-38.046403 83.928144-84.994044C383.956056 731.516168 346.384862 693.469764 300.02689 693.470786zM300.02689 820.962874c-23.182052 0-41.963561-19.020647-41.963561-42.498044 0-23.476375 18.781509-42.497022 41.964583-42.497022 23.182052 0 41.963561 19.019625 41.963561 42.498044C341.991473 801.942228 323.209964 820.962874 300.02689 820.962874z"
    p-id="2417" fill="#27BA9B"></path>
  <path
    d="M777.850635 393.739242l-80.239904 0 0 166.127138 174.671713 0c0-8.305437-81.809629-158.275449-81.809629-158.275449S783.13517 393.739242 777.850635 393.739242z"
    p-id="2418" fill="#27BA9B"></path>
  <path
    d="M169.293158 311.965381l64.481341 0c7.724966 0 13.988535-6.342259 13.988535-14.165333 0-7.824096-6.262547-14.165333-13.988535-14.165333l-64.481341 0c-7.724966 0-13.987513 6.342259-13.987513 14.165333C155.305645 305.623122 161.568192 311.965381 169.293158 311.965381z"
    p-id="2419" fill="#27BA9B"></path>
  <path
    d="M309.173397 311.965381l286.754747 0c7.724966 0 13.988535-6.342259 13.988535-14.165333 0-7.824096-6.262547-14.165333-13.988535-14.165333L309.173397 283.634715c-7.724966 0-13.987513 6.342259-13.987513 14.165333C295.185884 305.623122 301.448431 311.965381 309.173397 311.965381z"
    p-id="2420" fill="#27BA9B"></path>
  <path
    d="M169.293158 396.960447l426.634986 0c7.724966 0 13.988535-6.342259 13.988535-14.165333 0-7.823074-6.262547-14.165333-13.988535-14.165333L169.293158 368.62978c-7.724966 0-13.987513 6.342259-13.987513 14.165333C155.305645 390.618188 161.568192 396.960447 169.293158 396.960447z"
    p-id="2421" fill="#27BA9B"></path>
  <path
    d="M169.293158 481.954491l426.634986 0c7.724966 0 13.988535-6.342259 13.988535-14.165333s-6.262547-14.165333-13.988535-14.165333L169.293158 453.623824c-7.724966 0-13.987513 6.342259-13.987513 14.165333S161.568192 481.954491 169.293158 481.954491z"
    p-id="2422" fill="#27BA9B"></path>
  <path
    d="M597.464144 538.616846l-64.481341 0c-7.724966 0-13.987513 6.342259-13.987513 14.165333s6.262547 14.165333 13.987513 14.165333l64.481341 0c7.724966 0 13.988535-6.342259 13.988535-14.165333S605.18911 538.616846 597.464144 538.616846z"
    p-id="2423" fill="#27BA9B"></path>
  <path
    d="M456.047904 538.616846 169.293158 538.616846c-7.724966 0-13.987513 6.342259-13.987513 14.165333s6.262547 14.165333 13.987513 14.165333L456.047904 566.947513c7.724966 0 13.988535-6.342259 13.988535-14.165333S463.77287 538.616846 456.047904 538.616846z"
    p-id="2424" fill="#27BA9B"></path>
</svg>