<svg t="1683298912241" class="icon" viewBox="0 0 1024 1024" version="1.1" xmlns="http://www.w3.org/2000/svg" p-id="5819"
  width="80" height="80">
  <path
    d="M358.524518 693.727598a26.991105 26.991105 0 0 1-19.099103-46.090208l309.577532-309.577532a27.014047 27.014047 0 0 1 38.198206 38.198206L377.623621 685.835596a26.979634 26.979634 0 0 1-19.099103 7.892002z m0 0"
    fill="#d81e06" p-id="5820"></path>
  <path
    d="M666.163463 693.727598a27.014047 27.014047 0 0 1-19.099103-7.892002L337.486828 376.372773a27.014047 27.014047 0 0 1 38.198205-38.198206l309.54312 309.462823a26.991105 26.991105 0 0 1-19.099103 46.090208z m0 0M138.385848 847.885462a26.796099 26.796099 0 0 1-20.819742-9.84206 507.944371 507.944371 0 0 1-42.54569-59.64885A27.064519 27.064519 0 0 1 121.225333 750.198999a449.132899 449.132899 0 0 0 38.083497 53.408663 27.151698 27.151698 0 0 1-3.544519 38.083497 28.103785 28.103785 0 0 1-17.378463 6.171362z m0 0"
    fill="#d81e06" p-id="5821"></path>
  <path
    d="M511.879418 1023.998692a508.426151 508.426151 0 0 1-295.043861-93.545456 27.002576 27.002576 0 0 1 31.10917-44.140149 455.178081 455.178081 0 0 0 263.934691 83.600158c252.521113 0 458.034343-205.51323 458.034343-458.022873S764.377588 53.913384 511.879418 53.913384 53.982726 259.49544 53.982726 512.005082a456.359587 456.359587 0 0 0 18.353492 128.77269 27.049606 27.049606 0 0 1-51.917442 15.210457A512.750692 512.750692 0 0 1 0.000516 512.005082C0.000516 229.648073 229.637118 0 512.017069 0s511.98214 229.648073 511.98214 512.005082-229.797195 511.993611-512.119791 511.99361z m0 0"
    fill="#d81e06" p-id="5822"></path>
</svg>